<svg width="64" height="64" viewBox="0 0 64 64" fill="none" xmlns="http://www.w3.org/2000/svg">
<circle cx="32" cy="32" r="32" fill="#1E1E1E"/>
<path d="M31.0106 44.9713C30.7703 44.6485 29.8019 44.3257 26.9368 42.4715C25.0662 41.2608 24.38 40.1221 22.203 37.2206C18.8931 32.8093 19.6037 30.8219 19.2008 29.6448C19.0033 29.0677 19.0382 28.39 18.9168 26.2627C18.6269 21.1802 19.1959 17.3884 19.8415 16.5814C21.0284 15.0979 22.0258 14.3134 22.9978 13.504C24.4389 12.304 28.0836 11.401 29.7922 10.8331C31.5691 10.2425 36.481 10.2652 40.3836 10.7882C42.7901 11.1107 43.7863 12.765 44.7595 14.3437C46.1349 16.5749 46.621 17.7015 47.269 19.8033C47.7229 21.2752 47.917 22.8759 48.0396 26.1098C48.0991 27.6792 48.485 31.5111 47.8005 35.0121C47.3527 37.303 43.961 39.1416 43.0679 40.0335C42.0949 41.0052 40.5632 41.8113 39.2672 42.3004C37.9971 42.7796 36.8402 43.1898 34.861 43.3124C34.4108 43.3525 34.1705 43.4326 33.1657 43.4738C32.161 43.5151 30.399 43.5151 28.5836 43.5151" stroke="white" stroke-width="2" stroke-linecap="round" stroke-linejoin="round"/>
<path d="M29.0689 24.5845C28.9088 24.5845 28.6661 24.8247 28.5835 25.1888C28.4914 25.5953 29.632 25.3126 30.1174 25.1123C30.3573 25.0134 30.2824 24.5117 30.0422 24.3054C29.8019 24.0991 29.3214 24.0991 29.0738 24.2993C28.8262 24.4995 28.8262 24.9 28.9864 25.1864C29.1466 25.4727 29.467 25.6329 29.7521 25.6754C30.0373 25.7179 30.2776 25.6378 30.4014 25.3963C30.5251 25.1548 30.5251 24.7544 30.405 24.508C30.2849 24.2617 30.0446 24.1816 29.8007 24.2204C29.5568 24.2592 29.3165 24.4194 28.8262 25.0699" stroke="white" stroke-width="2" stroke-linecap="round" stroke-linejoin="round"/>
<path d="M38.5343 24.3418C38.5343 24.2617 38.5343 24.1816 38.4141 24.2204C38.294 24.2592 38.0537 24.4194 37.9299 24.6621C37.8062 24.9048 37.8062 25.2252 37.9263 25.5104C38.0464 25.7955 38.2867 26.0358 38.5306 26.1195C38.7745 26.2033 39.0148 26.1232 39.1786 25.9618C39.3424 25.8004 39.4225 25.5601 39.4638 25.2762C39.5051 24.9922 39.5051 24.6718 39.2648 24.5068C39.0245 24.3418 38.544 24.3418 38.2964 24.5019C38.0489 24.6621 38.0489 24.9825 38.169 25.1876C38.2891 25.3927 38.5294 25.4728 38.8134 25.514C39.0973 25.5553 39.4177 25.5553 39.5827 25.355C39.7478 25.1548 39.7478 24.7544 39.6276 24.508C39.5075 24.2617 39.2672 24.1816 39.0233 24.1403C38.7794 24.0991 38.5391 24.0991 38.2916 24.0991" stroke="white" stroke-width="2" stroke-linecap="round" stroke-linejoin="round"/>
<path d="M27.6128 33.5644C27.8555 34.0473 28.1758 35.0157 28.6624 36.0278C29.2471 37.2437 30.5203 37.5252 31.5324 37.7303C32.1362 37.8527 32.9473 37.933 33.7955 37.8529C35.0232 37.737 35.6995 36.4816 36.8305 35.2681C37.4761 34.6225 37.8862 34.0522 38.0076 33.528C38.0489 33.244 38.0489 32.9236 38.2916 32.5936" stroke="white" stroke-width="2" stroke-linecap="round" stroke-linejoin="round"/>
<path d="M34.1275 9.94357C34.1827 9.61034 34.5159 8.83168 35.1297 8.13173C35.6827 7.50102 36.7464 7.37819 37.9437 7.12533C39.6495 6.76509 40.9361 7.26264 41.1588 7.59671C41.5995 8.2577 42.4398 8.87857 43.0284 9.63378C43.7186 10.5194 44.1177 11.4473 44.3689 12.3122C44.6698 13.3483 44.7875 14.3476 44.9835 15.1597C45.1891 16.0121 45.4574 16.8058 45.8743 18.3899C47.0706 22.9348 47.6912 24.7866 47.8302 25.9304C48.0296 27.5719 48.1935 28.8055 48.3325 29.8094C48.4921 30.9617 48.4163 31.9336 48.5 33.871C48.5741 35.586 48.5284 38.7924 48.5837 40.5817C48.6724 43.4545 49.4193 44.8811 49.9217 46.0809C50.4279 47.29 51.4254 48.1732 52.0709 48.9301C52.7131 49.4056 53.2707 49.6853 53.8543 49.769C54.2168 49.7975 54.7142 49.7975 55.2266 49.7975" stroke="white" stroke-width="2" stroke-linecap="round" stroke-linejoin="round"/>
<path d="M32.2854 10.6134C32.0627 9.77777 31.619 9.33067 31.1434 8.77389C30.3801 7.88024 29.4421 7.99104 28.7714 7.76749C27.7556 7.42888 26.2605 7.48868 25.0339 7.45938C24.172 7.43879 23.3032 7.87717 22.4367 8.23971C21.7322 8.53444 20.9589 9.32397 20.3427 10.358C19.3595 12.0077 18.7787 13.6242 18.2771 14.6281C18.0172 15.1484 17.9414 15.8011 17.7463 16.4692C17.555 17.1245 17.5495 19.6893 17.5772 23.1489C17.593 25.1281 17.8275 26.1262 17.9397 28.4371C18.0744 31.2109 18.3299 33.6617 18.4144 35.0842C18.5253 36.949 18.3332 40.41 18.1917 41.5889C18.0839 42.4875 17.8309 43.2634 17.4399 44.3502C16.8283 46.0499 15.7109 46.5589 14.6518 47.0881C13.9292 47.3392 13.3096 47.5636 12.726 47.814C12.3635 47.9538 11.8662 48.1196 11.0189 48.4578" stroke="white" stroke-width="2" stroke-linecap="round" stroke-linejoin="round"/>
<path d="M23.7453 7.76665C23.0236 7.76665 21.5751 7.98769 20.4005 8.76803C19.3776 9.4475 18.9495 10.6067 18.5275 11.7537C18.1673 12.7328 17.8309 13.7347 17.5504 14.5175C17.2065 15.4773 17.2716 16.635 16.8814 17.8649C16.2198 19.9505 15.654 22.4423 15.3735 23.6697C15.0176 25.2272 14.7029 28.4538 14.5639 30.5897C14.404 33.0458 14.2005 34.8305 14.0615 36.006C13.8906 37.4518 13.7551 38.4609 13.0869 40.3849C12.6992 41.5015 12.1944 42.1482 9.82913 43.9014C8.68458 44.5461 7.95114 44.8291 7.53334 44.9681C7.33658 45.0518 7.1708 45.1624 7 45.2762" stroke="white" stroke-width="2" stroke-linecap="round" stroke-linejoin="round"/>
<path d="M43.1699 9.94358C43.5032 9.72087 44.0608 9.60867 44.4509 9.69156C45.6286 9.94175 46.4587 12.3917 47.27 13.7071C47.7369 14.464 48.3007 15.5198 48.7503 16.3596C49.3045 17.3947 49.5867 18.4234 49.8672 19.1786C50.1972 20.0671 50.203 21.7658 50.342 22.9455C50.4932 24.2293 50.7053 25.4531 51.4279 28.1583C51.8034 29.5642 51.8206 31.2604 51.9051 33.907C51.9513 35.3504 52.2124 36.3409 52.379 37.1514C52.6031 38.2414 52.7148 39.0202 52.8814 39.803C53.1097 40.8758 53.4951 41.7564 53.8015 42.427C54.4998 43.0977 55.2215 43.6553 56.1132 43.9902C56.5076 44.1041 56.7839 44.1041 57.0686 44.1041" stroke="white" stroke-width="2" stroke-linecap="round" stroke-linejoin="round"/>
<path d="M41.9978 42.7644C42.2205 43.2634 42.3327 44.4892 42.7773 45.4127C43.1683 46.1118 43.7259 46.6142 44.1713 46.9482C44.3957 47.1165 44.6167 47.2823 45.1794 47.6206" stroke="white" stroke-width="2" stroke-linecap="round" stroke-linejoin="round"/>
<path d="M37.3091 44.7739C37.3643 45.1607 37.4196 45.5475 37.5862 45.9125C37.7528 46.2776 38.0291 46.6092 38.4812 46.9508" stroke="white" stroke-width="2" stroke-linecap="round" stroke-linejoin="round"/>
<path d="M22.3608 37.4565C22.3608 40.8172 22.2827 47.3943 22.0472 47.8664C21.1798 48.8143 20.2355 49.4462 19.2876 49.7622C19.0498 49.8414 18.8155 49.9195 18.5741 50" stroke="white" stroke-width="2" stroke-linecap="round" stroke-linejoin="round"/>
</svg>
