<svg width="45" height="143" viewBox="0 0 45 143" fill="none" xmlns="http://www.w3.org/2000/svg">
<path d="M1 141.111C1 138.973 3.00576 128.15 4.79499 122.254C5.79682 118.953 6.81974 115.933 8.84259 111.12C10.7252 106.641 11.5074 103.769 12.3926 100.603C13.1169 98.0117 14.2882 95.5411 15.179 93.1289C16.1429 90.5186 17.0765 88.8248 17.8381 86.6709C18.804 83.9394 19.4849 82.2377 19.992 80.6536C20.5736 78.8372 21.0044 77.0486 21.5115 75.398C21.7462 74.6344 22.0187 73.8766 22.4593 73.6202C24.8832 72.2097 24.674 79.8065 26.0036 85.0602C27.006 89.0211 28.8527 95.7462 30.245 102.276C31.4268 107.819 32.0209 110.584 32.2754 112.676C32.6131 115.45 33.4112 118.934 34.0475 121.603C34.4973 123.489 34.68 125.529 34.8719 127.365C35.0555 129.124 35.8197 130.847 36.2641 132.746C36.4541 134.65 36.8339 135.915 37.0866 137.05C37.2138 137.685 37.3392 138.437 37.4683 139.592" stroke="white" stroke-width="2" stroke-linecap="round" stroke-linejoin="round"/>
<path d="M22.7752 72.8028C22.7752 70.48 22.9078 65.7741 23.1761 64.9694C23.4385 64.1823 23.5106 63.3629 23.6121 62.1915C23.6619 61.6164 23.7799 58.6973 23.7467 54.5792C23.7333 52.9115 23.579 50.1898 23.5458 46.2726C23.534 44.8748 23.4463 44.6762 23.4122 42.8497C23.3136 37.5761 23.4443 33.8239 23.5448 33.1578C23.8654 31.0325 23.9125 30.2091 24.014 29.0708C24.0382 28.7996 24.1134 28.6016 24.2802 28.5323C24.447 28.463 24.7122 28.5293 24.9483 28.6961C25.9197 29.3822 26.2554 30.402 26.825 31.4066C27.431 32.4754 28.1964 33.4803 29.0674 34.721C30.1105 36.2068 30.475 37.1654 30.8447 38.0716C31.2473 39.0584 31.6806 40.6415 32.1507 42.0229C32.4668 42.9514 32.42 44.198 32.7535 46.2043C33.0636 48.0692 33.2237 49.2896 33.3905 50.4942C33.6684 52.5016 34.2284 54.9157 34.5951 56.8879C34.7629 57.5279 34.8312 58.4622 34.8643 59.6668C34.8975 60.142 34.9638 60.3409 35.0321 60.5459" stroke="white" stroke-width="2" stroke-linecap="round" stroke-linejoin="round"/>
<path d="M23.7799 27.9948C23.38 28.5293 22.5783 29.1964 21.7404 29.8675C20.6856 30.7123 19.8336 32.0054 19.1273 33.0483C18.4315 34.0756 17.6876 34.9551 16.9512 35.8613C16.2057 36.7787 15.8792 38.0334 15.1428 39.3093C13.7487 41.7248 13.0662 45.5362 12.7628 46.8443C12.5265 47.8629 12.5277 48.9521 12.3277 49.9266C12.1121 50.9776 11.3944 53.2279 10.9212 55.0494C10.6756 55.9949 10.3857 57.0577 10.1506 58.0302C10.0502 59.4046 9.84924 60.142 9.74877 60.6092C9.71461 60.8774 9.71461 61.2089 9.71461 61.5505" stroke="white" stroke-width="2" stroke-linecap="round" stroke-linejoin="round"/>
<path d="M24.2743 28.8734C24.098 28.6364 23.3871 28.3995 21.284 27.0383C19.9108 26.1497 19.4071 25.3138 17.809 23.1839C15.3794 19.9457 15.9009 18.4868 15.6052 17.6227C15.4602 17.1991 15.4858 16.7016 15.3967 15.1401C15.1839 11.4092 15.6016 8.62576 16.0755 8.03338C16.9468 6.94435 17.6789 6.3685 18.3925 5.77435C19.4503 4.89345 22.1258 4.23061 23.38 3.81372C24.6843 3.38018 28.29 3.39684 31.1548 3.78076C32.9213 4.01751 33.6525 5.23186 34.367 6.39077C35.3766 8.02858 35.7334 8.85558 36.2091 10.3984C36.5422 11.4789 36.6848 12.6539 36.7748 15.0278C36.8184 16.1798 37.1017 18.9927 36.5993 21.5627C36.2705 23.2444 33.7808 24.594 33.1252 25.2487C32.4109 25.962 31.2866 26.5537 30.3353 26.9127C29.4029 27.2646 28.5537 27.5657 27.1008 27.6557C26.7703 27.685 26.5939 27.7438 25.8564 27.7741C25.1188 27.8044 23.8254 27.8044 22.4928 27.8044" stroke="white" stroke-width="2" stroke-linecap="round" stroke-linejoin="round"/>
<path d="M22.8491 13.9081C22.7315 13.9081 22.5533 14.0845 22.4928 14.3517C22.4251 14.6502 23.2624 14.4426 23.6187 14.2956C23.7948 14.223 23.7399 13.8547 23.5635 13.7032C23.3871 13.5518 23.0344 13.5518 22.8526 13.6988C22.6709 13.8458 22.6709 14.1397 22.7885 14.35C22.9061 14.5602 23.1413 14.6778 23.3506 14.7089C23.5599 14.7401 23.7363 14.6813 23.8272 14.5041C23.918 14.3268 23.918 14.0328 23.8298 13.852C23.7416 13.6712 23.5653 13.6124 23.3862 13.6409C23.2072 13.6694 23.0308 13.787 22.6709 14.2644" stroke="white" stroke-width="2" stroke-linecap="round" stroke-linejoin="round"/>
<path d="M29.7972 13.73C29.7972 13.6712 29.7972 13.6124 29.709 13.6409C29.6208 13.6694 29.4445 13.787 29.3536 13.9651C29.2627 14.1433 29.2627 14.3785 29.3509 14.5878C29.4391 14.7971 29.6155 14.9735 29.7945 15.035C29.9736 15.0964 30.15 15.0376 30.2702 14.9192C30.3905 14.8007 30.4493 14.6243 30.4796 14.4159C30.5098 14.2074 30.5098 13.9723 30.3335 13.8511C30.1571 13.73 29.8043 13.73 29.6226 13.8476C29.4409 13.9651 29.4409 14.2003 29.5291 14.3508C29.6173 14.5014 29.7937 14.5602 30.0021 14.5905C30.2105 14.6208 30.4457 14.6208 30.5669 14.4738C30.688 14.3268 30.688 14.0328 30.5998 13.852C30.5116 13.6712 30.3353 13.6124 30.1562 13.5821C29.9772 13.5518 29.8008 13.5518 29.6191 13.5518" stroke="white" stroke-width="2" stroke-linecap="round" stroke-linejoin="round"/>
<path d="M21.7801 20.5C21.9583 20.8545 22.1935 21.5653 22.5507 22.3083C22.9798 23.2009 23.9145 23.4075 24.6574 23.558C25.1007 23.6479 25.696 23.7068 26.3187 23.648C27.2199 23.5629 27.7163 22.6414 28.5466 21.7506C29.0205 21.2767 29.3215 20.8581 29.4106 20.4732C29.4409 20.2648 29.4409 20.0296 29.6191 19.7873" stroke="white" stroke-width="2" stroke-linecap="round" stroke-linejoin="round"/>
<path d="M26.5623 3.16077C26.6029 2.91616 26.8475 2.34457 27.298 1.83076C27.704 1.36778 28.4848 1.27761 29.3637 1.092C30.6159 0.827559 31.5603 1.1928 31.7238 1.43803C32.0473 1.92323 32.6642 2.37899 33.0962 2.93337C33.6029 3.58344 33.8958 4.26461 34.0802 4.8995C34.3011 5.66009 34.3875 6.39361 34.5313 6.98978C34.6823 7.61547 34.8792 8.1981 35.1853 9.36094C36.0634 12.6972 36.519 14.0565 36.621 14.8961C36.7674 16.1011 36.8877 17.0067 36.9898 17.7436C37.1069 18.5895 37.0512 19.3028 37.1127 20.725C37.1671 21.984 37.1336 24.3377 37.1742 25.6511C37.2393 27.7599 37.7875 28.8071 38.1563 29.6879C38.5279 30.5755 39.2601 31.2238 39.734 31.7794C40.2054 32.1285 40.6147 32.3338 41.0431 32.3952C41.3092 32.4161 41.6743 32.4161 42.0505 32.4161" stroke="white" stroke-width="2" stroke-linecap="round" stroke-linejoin="round"/>
<path d="M25.2102 3.65246C25.0467 3.03908 24.721 2.71088 24.3719 2.30216C23.8116 1.64617 23.123 1.7275 22.6307 1.5634C21.885 1.31484 20.7875 1.35874 19.8871 1.33723C19.2544 1.32211 18.6167 1.64392 17.9806 1.91004C17.4634 2.1264 16.8958 2.70596 16.4434 3.465C15.7217 4.67602 15.2953 5.86259 14.9272 6.5995C14.7364 6.98147 14.6807 7.46057 14.5375 7.95103C14.3971 8.43202 14.3931 10.3148 14.4134 12.8544C14.425 14.3072 14.5971 15.0399 14.6795 16.7362C14.7784 18.7724 14.9659 20.5714 15.028 21.6156C15.1094 22.9845 14.9684 25.5251 14.8645 26.3905C14.7853 27.0501 14.5996 27.6197 14.3126 28.4175C13.8637 29.6652 13.0434 30.0388 12.2659 30.4272C11.7355 30.6116 11.2807 30.7763 10.8523 30.9601C10.5862 31.0627 10.2211 31.1844 9.59915 31.4327" stroke="white" stroke-width="2" stroke-linecap="round" stroke-linejoin="round"/>
<path d="M18.9412 1.56279C18.4114 1.56279 17.3481 1.72505 16.4858 2.29786C15.735 2.79664 15.4207 3.64754 15.111 4.48955C14.8465 5.20828 14.5996 5.94372 14.3937 6.51837C14.1413 7.22293 14.189 8.07272 13.9026 8.97558C13.417 10.5065 13.0016 12.3356 12.7957 13.2367C12.5345 14.38 12.3034 16.7485 12.2014 18.3164C12.0841 20.1193 11.9347 21.4294 11.8326 22.2923C11.7072 23.3536 11.6077 24.0943 11.1172 25.5067C10.8326 26.3263 10.4621 26.8011 8.72579 28.088C7.88562 28.5613 7.34723 28.769 7.04054 28.8711C6.89611 28.9325 6.77441 29.0136 6.64903 29.0972" stroke="white" stroke-width="2" stroke-linecap="round" stroke-linejoin="round"/>
<path d="M33.2001 3.16077C33.4447 2.99728 33.854 2.91493 34.1404 2.97577C35.0049 3.15943 35.6143 4.95788 36.2098 5.92343C36.5525 6.47905 36.9664 7.25406 37.2965 7.87051C37.7033 8.63034 37.9105 9.38552 38.1163 9.9399C38.3586 10.5921 38.3628 11.839 38.4648 12.705C38.5759 13.6474 38.7316 14.5458 39.262 16.5316C39.5376 17.5636 39.5502 18.8087 39.6123 20.7515C39.6462 21.811 39.8379 22.5381 39.9602 23.1331C40.1247 23.9332 40.2066 24.5049 40.3289 25.0795C40.4965 25.8671 40.7794 26.5134 41.0044 27.0057C41.517 27.498 42.0468 27.9073 42.7013 28.1532C42.9908 28.2368 43.1936 28.2368 43.4026 28.2368" stroke="white" stroke-width="2" stroke-linecap="round" stroke-linejoin="round"/>
<path d="M32.3396 27.2534C32.5031 27.6197 32.5855 28.5195 32.9118 29.1974C33.1989 29.7106 33.6082 30.0794 33.9352 30.3246C34.0999 30.4481 34.2621 30.5698 34.6752 30.8181" stroke="white" stroke-width="2" stroke-linecap="round" stroke-linejoin="round"/>
<path d="M28.8978 28.7285C28.9384 29.0124 28.979 29.2964 29.1013 29.5643C29.2236 29.8323 29.4264 30.0757 29.7583 30.3264" stroke="white" stroke-width="2" stroke-linecap="round" stroke-linejoin="round"/>
<path d="M17.9249 23.357C17.9249 25.824 17.8675 30.652 17.6947 30.9986C17.0579 31.6944 16.3648 32.1583 15.669 32.3902C15.4944 32.4484 15.3224 32.5057 15.1452 32.5648" stroke="white" stroke-width="2" stroke-linecap="round" stroke-linejoin="round"/>
</svg>
