<svg width="728" height="375" viewBox="0 0 728 375" fill="none" xmlns="http://www.w3.org/2000/svg">
<path d="M172.246 137.503C172.06 137.252 171.309 137.002 169.087 135.564C167.636 134.625 167.103 133.741 165.415 131.491C162.848 128.069 163.399 126.528 163.086 125.615C162.933 125.167 162.96 124.642 162.866 122.992C162.641 119.049 163.083 116.108 163.583 115.483C164.504 114.332 165.277 113.723 166.031 113.096C167.149 112.165 169.976 111.464 171.301 111.024C172.68 110.566 176.489 110.583 179.516 110.989C181.383 111.239 182.156 112.522 182.91 113.747C183.977 115.477 184.354 116.351 184.857 117.981C185.209 119.123 185.36 120.365 185.455 122.873C185.501 124.09 185.8 127.062 185.269 129.778C184.922 131.555 182.291 132.981 181.598 133.673C180.844 134.426 179.656 135.052 178.65 135.431C177.665 135.803 176.768 136.121 175.233 136.216C174.884 136.247 174.697 136.309 173.918 136.341C173.139 136.373 171.772 136.373 170.364 136.373" stroke="white" stroke-width="2" stroke-linecap="round" stroke-linejoin="round"/>
<path d="M170.74 121.69C170.616 121.69 170.428 121.876 170.364 122.159C170.292 122.474 171.177 122.255 171.554 122.099C171.74 122.023 171.682 121.633 171.495 121.473C171.309 121.313 170.936 121.313 170.744 121.469C170.552 121.624 170.552 121.935 170.676 122.157C170.801 122.379 171.049 122.503 171.27 122.536C171.491 122.569 171.678 122.507 171.774 122.32C171.87 122.132 171.87 121.822 171.777 121.631C171.683 121.44 171.497 121.377 171.308 121.408C171.119 121.438 170.932 121.562 170.552 122.066" stroke="white" stroke-width="2" stroke-linecap="round" stroke-linejoin="round"/>
<path d="M178.082 121.502C178.082 121.44 178.082 121.377 177.989 121.408C177.896 121.438 177.709 121.562 177.613 121.75C177.517 121.938 177.517 122.187 177.61 122.408C177.704 122.629 177.89 122.816 178.079 122.881C178.268 122.946 178.455 122.883 178.582 122.758C178.709 122.633 178.771 122.447 178.803 122.226C178.835 122.006 178.835 121.758 178.649 121.63C178.462 121.502 178.089 121.502 177.897 121.626C177.705 121.75 177.705 121.999 177.799 122.158C177.892 122.317 178.078 122.379 178.298 122.411C178.519 122.443 178.767 122.443 178.895 122.288C179.023 122.132 179.023 121.822 178.93 121.631C178.837 121.44 178.65 121.377 178.461 121.345C178.272 121.313 178.086 121.313 177.894 121.313" stroke="white" stroke-width="2" stroke-linecap="round" stroke-linejoin="round"/>
<path d="M169.611 128.655C169.799 129.03 170.048 129.781 170.425 130.566C170.879 131.509 171.866 131.727 172.651 131.886C173.119 131.981 173.749 132.043 174.406 131.981C175.359 131.891 175.883 130.918 176.76 129.977C177.261 129.476 177.579 129.033 177.673 128.627C177.705 128.407 177.705 128.158 177.894 127.902" stroke="white" stroke-width="2" stroke-linecap="round" stroke-linejoin="round"/>
<path d="M174.664 110.334C174.707 110.076 174.965 109.472 175.441 108.929C175.87 108.44 176.695 108.344 177.624 108.148C178.947 107.869 179.945 108.255 180.118 108.514C180.459 109.026 181.111 109.508 181.568 110.094C182.103 110.781 182.413 111.5 182.607 112.171C182.841 112.975 182.932 113.75 183.084 114.38C183.244 115.041 183.452 115.657 183.775 116.885C184.703 120.41 185.184 121.847 185.292 122.734C185.447 124.007 185.574 124.964 185.682 125.743C185.805 126.636 185.747 127.39 185.812 128.893C185.869 130.223 185.834 132.71 185.877 134.098C185.945 136.326 186.525 137.433 186.914 138.363C187.307 139.301 188.081 139.986 188.581 140.573C189.079 140.942 189.512 141.159 189.965 141.224C190.246 141.246 190.632 141.246 191.029 141.246" stroke="white" stroke-width="2" stroke-linecap="round" stroke-linejoin="round"/>
<path d="M173.235 110.854C173.062 110.205 172.718 109.859 172.349 109.427C171.757 108.734 171.03 108.82 170.51 108.646C169.722 108.384 168.562 108.43 167.611 108.407C166.942 108.391 166.268 108.731 165.596 109.012C165.05 109.241 164.45 109.853 163.972 110.655C163.209 111.935 162.759 113.189 162.37 113.967C162.168 114.371 162.11 114.877 161.958 115.396C161.81 115.904 161.806 117.893 161.827 120.576C161.839 122.112 162.021 122.886 162.108 124.678C162.213 126.83 162.411 128.73 162.476 129.834C162.562 131.28 162.413 133.965 162.304 134.879C162.22 135.576 162.024 136.178 161.721 137.021C161.246 138.339 160.379 138.734 159.558 139.144C158.998 139.339 158.517 139.513 158.064 139.707C157.783 139.816 157.397 139.944 156.74 140.207" stroke="white" stroke-width="2" stroke-linecap="round" stroke-linejoin="round"/>
<path d="M166.611 108.646C166.051 108.646 164.928 108.817 164.017 109.422C163.223 109.949 162.891 110.848 162.564 111.738C162.285 112.497 162.024 113.275 161.806 113.882C161.54 114.626 161.59 115.524 161.287 116.478C160.774 118.096 160.335 120.028 160.118 120.98C159.842 122.188 159.598 124.691 159.49 126.348C159.366 128.253 159.208 129.637 159.1 130.549C158.968 131.67 158.862 132.453 158.344 133.945C158.044 134.811 157.652 135.313 155.817 136.673C154.93 137.173 154.361 137.392 154.037 137.5C153.884 137.565 153.756 137.651 153.623 137.739" stroke="white" stroke-width="2" stroke-linecap="round" stroke-linejoin="round"/>
<path d="M181.678 110.334C181.936 110.161 182.368 110.074 182.671 110.139C183.585 110.333 184.228 112.233 184.858 113.253C185.22 113.84 185.657 114.659 186.006 115.31C186.436 116.113 186.655 116.911 186.872 117.497C187.128 118.186 187.133 119.504 187.24 120.419C187.358 121.414 187.522 122.364 188.083 124.462C188.374 125.552 188.387 126.868 188.453 128.921C188.489 130.04 188.691 130.809 188.82 131.437C188.994 132.283 189.081 132.887 189.21 133.494C189.387 134.326 189.686 135.009 189.924 135.529C190.465 136.049 191.025 136.482 191.717 136.742C192.023 136.83 192.237 136.83 192.458 136.83" stroke="white" stroke-width="2" stroke-linecap="round" stroke-linejoin="round"/>
<path d="M180.768 135.791C180.941 136.178 181.028 137.129 181.373 137.845C181.676 138.387 182.109 138.777 182.454 139.036C182.628 139.166 182.8 139.295 183.236 139.557" stroke="white" stroke-width="2" stroke-linecap="round" stroke-linejoin="round"/>
<path d="M177.132 137.349C177.175 137.65 177.217 137.95 177.347 138.233C177.476 138.516 177.69 138.773 178.041 139.038" stroke="white" stroke-width="2" stroke-linecap="round" stroke-linejoin="round"/>
<path d="M165.537 131.674C165.537 134.28 165.477 139.382 165.294 139.748C164.621 140.483 163.889 140.973 163.154 141.218C162.969 141.28 162.787 141.341 162.6 141.403" stroke="white" stroke-width="2" stroke-linecap="round" stroke-linejoin="round"/>
<path d="M64.7961 13.5203C64.9902 13.5203 65.1843 13.5203 73.1451 13.5203C81.1059 13.5203 96.8275 13.5203 114.202 14.1085" stroke="white" stroke-width="4" stroke-linecap="round" stroke-linejoin="round"/>
<path d="M87.1463 13.5203C87.7345 16.8376 88.1227 21.1547 88.2256 29.8566C88.2551 32.3467 87.7345 36.2293 87.6374 41.6169C87.1463 52.8508 87.3404 68.8018 87.6345 70.9457C87.7345 72.5073 87.7345 75.0305 87.7345 77.6302" stroke="white" stroke-width="4" stroke-linecap="round" stroke-linejoin="round"/>
<path d="M118.319 77.042C118.319 72.1544 118.707 66.6786 119.101 60.794C119.365 56.8571 120.083 53.5272 120.763 47.9779C123.277 27.4387 125.765 25.2954 128.015 21.9634C129.712 19.45 130.47 16.4729 131.841 13.6291C132.49 12.2828 133.605 11.3676 134.779 10.6824C135.35 10.3488 135.952 10.1913 136.737 10.7707C141.979 14.6378 142.622 22.131 145.557 27.1216C150.371 35.3075 150.08 41.3405 150.568 48.469C150.668 60.0323 150.474 68.2137 150.18 70.5516C150.08 72.3073 150.08 75.2187 150.08 78.2183" stroke="white" stroke-width="4" stroke-linecap="round" stroke-linejoin="round"/>
<path d="M124.201 47.6339H150.08" stroke="white" stroke-width="4" stroke-linecap="round" stroke-linejoin="round"/>
<path d="M173.018 72.9249C173.018 71.5603 172.63 68.4313 171.654 58.9766C170.999 52.6371 169.325 41.1993 168.525 32.4857C167.212 18.1812 167.919 11.7617 168.504 10.4913C170.099 7.02884 177.876 6.27416 188.763 6.0683C191.686 6.01304 193.01 7.43872 194.183 8.31803C196.578 10.1129 197.321 12.9204 198.306 15.4701C199.666 18.9892 198.509 22.331 196.065 27.0305C193.733 31.5158 187.346 34.8824 184.208 36.0617C178.681 38.1387 175.771 37.8291 175.08 38.4144C172.038 40.9905 184.546 46.2222 188.302 50.4658C191.132 53.664 193.592 58.9854 195.168 63.8877C195.563 67.6255 195.957 70.1664 196.054 72.5161C196.151 73.5072 196.345 74.0894 197.133 75.2775" stroke="white" stroke-width="4" stroke-linecap="round" stroke-linejoin="round"/>
<path d="M231.246 15.873C232.423 19.3902 232.811 23.3074 232.914 46.3663C232.947 53.7142 232.035 58.009 231.249 62.3203C230.858 64.6671 230.464 66.6433 230.17 68.2078C230.07 68.9959 230.07 69.7723 229.482 71.1604" stroke="white" stroke-width="4" stroke-linecap="round" stroke-linejoin="round"/>
<path d="M215.954 17.6375C218.495 17.6375 222.012 17.2493 226.229 16.9523C232.216 16.5306 238.469 16.073 246.706 15.7759C248.297 15.6789 248.88 15.4848 249.762 15.3848C250.644 15.2848 251.809 15.2848 253.009 15.2848" stroke="white" stroke-width="4" stroke-linecap="round" stroke-linejoin="round"/>
<path d="M49.2306 14.7796C46.5703 13.0061 42.1497 11.2325 32.9285 11.1092C25.8723 11.0148 22.1205 20.767 20.787 25.4243C19.63 29.4652 20.7804 32.7752 21.3338 34.3254C22.8272 38.5089 28.0946 40.7696 38.1792 43.6633C46.1606 45.9534 52.111 44.7767 53.8845 46.3269C55.8917 48.0813 57.0049 50.3308 57.6716 52.6544C59.5437 59.1786 55.2447 63.8791 53.5711 66.9962C52.4109 69.1572 50.1307 71.22 48.1338 72.9969C45.8125 75.0625 41.2563 74.5605 33.3686 74.6771C26.5944 72.5802 16.8132 67.6929 14.0095 64.2425C13.6728 63.4591 13.4528 62.799 13.2261 62.1189" stroke="white" stroke-width="4" stroke-linecap="round" stroke-linejoin="round"/>
<path d="M270.592 43.4499H325.265" stroke="white" stroke-width="4" stroke-linecap="round" stroke-linejoin="round"/>
<path d="M373.271 16.1131C373.271 17.6533 373.271 19.1935 373.271 29.2281C373.271 39.2627 373.271 57.745 374.261 67.2662C375.251 76.7874 377.232 76.7874 378.912 76.6774C381.924 76.4802 392.514 76.1207 407.175 76.2307C419.25 76.3213 429.038 76.3474 432.599 76.0106C436.013 75.6878 439.26 74.7872 442.26 73.9071C447.436 72.3889 442.613 64.1458 442.06 59.4686C441.43 54.1464 440.613 48.3572 440.06 44.1333C439.508 39.9256 439.28 31.5151 438.726 24.4675C438.281 18.7945 437.946 15.6864 437.283 12.236C429.352 10.1124 413.07 9.89235 404.355 9.55898C397.181 9.44563 384.419 9.44563 371.271 10.7791" stroke="white" stroke-width="4" stroke-linecap="round" stroke-linejoin="round"/>
<path d="M398.608 46.1169C398.828 44.35 400.155 40.3562 401.381 37.2391C403.076 32.9344 405.929 29.4615 407.826 26.7911C408.26 26.1798 408.382 25.461 408.716 25.451C409.049 25.441 409.489 26.1011 409.716 32.4919C409.942 38.8827 409.942 50.9842 409.942 63.4524" stroke="white" stroke-width="4" stroke-linecap="round" stroke-linejoin="round"/>
<path d="M459.949 43.4499C462.382 43.4499 466.376 43.0098 491.519 42.6731C496.833 42.5631 497.713 42.3431 500.477 42.2297C503.241 42.1164 507.861 42.1164 512.622 42.1164" stroke="white" stroke-width="4" stroke-linecap="round" stroke-linejoin="round"/>
<path d="M545.96 4.77839C546.18 7.85877 546.4 10.9392 546.513 20.7771C546.626 30.615 546.626 47.117 547.506 55.7281C548.387 64.3392 550.147 64.5592 555.564 64.6726C560.981 64.7859 570.003 64.7859 576.41 64.5659C591.537 64.0464 597.713 63.0124 603.17 62.6756C609.725 62.2712 617.288 61.6789 621.842 61.1221C625.048 60.7302 621.302 53.4645 619.642 44.27C617.956 34.93 618.635 29.4748 618.082 24.3542C617.671 20.549 616.635 15.6998 616.082 10.9058C615.865 9.02799 615.748 7.45206 614.865 6.2319C611.147 1.09656 597.793 2.77814 590.775 2.22473C583.413 1.64415 577.53 2.33141 573.333 2.66479C559.081 2.99816 556.414 3.66491 553.981 3.99829C552.427 4.11164 550.227 4.11164 547.96 4.11164" stroke="white" stroke-width="4" stroke-linecap="round" stroke-linejoin="round"/>
<path d="M572.63 27.4479C571.963 24.3542 572.843 19.0202 575.177 16.1231C576.221 14.8271 577.29 13.8929 579.06 13.5595C580.157 13.353 581.711 13.4461 583.164 14.1062C586.267 15.5154 587.518 18.1067 587.961 19.4369C589.173 23.0699 587.311 28.9814 586.411 32.2152C585.451 35.6655 583.524 38.1026 581.417 41.4363C579.421 44.5946 577.977 46.997 576.74 49.2206C580.397 50.1174 583.291 49.8974 586.271 49.564C588.592 49.4507 592.552 49.4506 596.633 49.4506" stroke="white" stroke-width="4" stroke-linecap="round" stroke-linejoin="round"/>
<path d="M639.305 38.7827C645.025 37.9025 653.913 37.4492 664.234 37.6692C676.338 37.9272 685.484 44.53 693.951 50.9842C699.102 54.91 704.619 60.9721 707.97 65.9927C710.421 69.6659 712.634 72.7736 714.197 76.1073C716.268 80.5228 719.741 91.816 720.538 108.295C720.967 117.169 715.541 125.887 713.987 129.891C712.797 132.958 710.22 136.328 707.323 139.562C704.528 142.682 701.552 145.449 697.549 147.9C694.656 149.67 688.244 151.45 683.327 152.46C677.008 153.758 673.989 154.571 670.212 155.461C669.315 155.684 668.655 155.904 667.655 156.017C666.655 156.131 665.335 156.131 663.974 156.131" stroke="white" stroke-width="4" stroke-linecap="round" stroke-linejoin="round"/>
<path d="M535.292 140.795C535.512 151.897 535.958 159.411 536.512 167.095C537.655 182.976 537.959 187.895 538.622 192.009C539.19 195.53 539.959 199.003 540.512 203.56C541.439 211.189 541.292 215.671 541.732 219.005C542.184 222.426 563.135 219.472 573.95 218.365C577.302 218.022 579.951 217.472 590.689 215.811C599.113 214.509 604.847 215.251 610.691 214.918C634.814 213.542 637.518 214.138 638.851 213.368C642.993 210.976 638.638 205.043 638.084 200.156C637.507 195.057 637.304 184.001 636.198 174.49C635.692 170.146 635.304 164.398 634.751 159.588C634.405 156.585 633.971 153.037 632.864 148.04C631.727 142.908 631.53 139.262 631.194 135.585C631.121 134.797 630.864 134.141 630.42 133.691C629.514 132.772 616.535 132.794 597.649 132.684C589.758 132.638 583.131 132.128 573.696 132.348C563.696 132.581 559.308 133.901 552.654 134.238C547.533 134.795 542.199 135.675 538.749 136.238C537.965 136.348 537.305 136.568 535.292 136.795" stroke="white" stroke-width="4" stroke-linecap="round" stroke-linejoin="round"/>
<path d="M574.63 160.131C574.63 157.478 574.85 154.137 575.513 152.917C577.074 150.046 581.724 149.69 584.621 149.353C585.982 149.195 587.511 148.796 589.175 149.237C591.066 149.737 592.399 153.664 594.066 158.428C595.867 163.575 594.192 167.459 593.085 168.899C590.06 172.836 585.971 173.686 585.301 173.91C584.651 174.126 587.951 173.466 590.282 173.686C592.07 173.855 593.292 175.24 594.402 176.237C596.696 178.296 597.073 182.561 597.853 186.338C599.294 193.316 596.419 196.122 594.639 198.793C592.541 201.939 583.351 202.136 578.64 201.363C577.31 200.59 575.97 199.696 574.75 198.589C574.19 197.923 573.75 197.042 573.296 195.469" stroke="white" stroke-width="4" stroke-linecap="round" stroke-linejoin="round"/>
<path d="M460.616 185.468C470.103 185.468 485.712 185.028 492.039 184.691C493.5 184.581 494.38 184.361 500.114 184.248C505.848 184.134 516.409 184.134 527.291 184.134" stroke="white" stroke-width="4" stroke-linecap="round" stroke-linejoin="round"/>
<path d="M665.975 140.795C665.308 142.789 663.988 146.769 662.534 150.673C661.44 153.613 660.201 155.457 659.864 156.897C659.069 160.298 664.628 161.011 667.408 162.238C672.835 164.345 679.303 166.572 680.743 167.459C681.523 167.905 682.403 168.346 684.644 168.799" stroke="white" stroke-width="4" stroke-linecap="round" stroke-linejoin="round"/>
<path d="M472.617 167.465C470.85 169.899 467.296 173.453 465.179 176.123C462.979 178.898 459.962 180.787 456.738 183.791C456.032 184.449 455.295 184.574 455.395 185.018C456.737 190.97 468.817 193.895 472.494 196.129C475.277 198.129 477.498 199.91 479.161 200.796C479.945 201.243 480.605 201.683 481.952 202.803" stroke="white" stroke-width="4" stroke-linecap="round" stroke-linejoin="round"/>
<path d="M428.611 160.131C428.611 167.679 429.052 171.666 429.388 175.01C429.903 180.118 430.385 185.454 430.722 195.539C431.052 205.427 431.058 216.798 430.725 219.009C430.493 220.546 430.612 222.979 425.881 224.226C412.105 227.857 400.621 225.693 396.421 226.026C383.761 227.031 379.739 226.806 370.007 227.36C351.977 228.385 339.934 226.373 339.824 224.376C339.635 220.955 338.6 217.045 337.493 200.69C336.866 191.42 337.267 176 337.817 168.065C338.367 160.131 339.467 160.131 340.584 160.021C341.701 159.911 342.801 159.691 349.638 159.578C356.476 159.464 369.017 159.464 375.918 159.354C387.478 159.17 395.914 158.358 408.119 158.021C410.603 157.911 411.263 157.691 414.683 157.578C418.104 157.464 424.264 157.464 430.612 158.131" stroke="white" stroke-width="4" stroke-linecap="round" stroke-linejoin="round"/>
<path d="M303.757 194.387C303.317 194.387 294.069 194.387 279.961 194.497C273.985 194.543 265.826 195.053 254.494 195.163C249.764 195.493 247.104 195.72 243.773 195.83C242.423 195.94 241.763 196.16 240.416 196.387" stroke="white" stroke-width="4" stroke-linecap="round" stroke-linejoin="round"/>
<path d="M255.085 175.051C253.091 176.158 249.11 179.691 244.99 183.039C237.698 188.961 234.202 193.04 232.422 195.71C231.975 196.38 231.535 197.04 231.638 197.49C232.593 201.647 241.069 202.828 243.74 204.825C246.215 206.676 249.511 208.602 253.071 209.829C256.411 211.495 258.632 212.609 260.295 213.052C261.079 213.276 261.739 213.496 263.752 215.056" stroke="white" stroke-width="4" stroke-linecap="round" stroke-linejoin="round"/>
<path d="M313.264 27.4479C318.358 29.8748 323.252 34.3287 325.922 36.6624C328.524 38.9362 331.919 40.3295 335.587 43.3265C336.446 44.0291 336.813 44.77 336.6 45.2201C333.94 46.5569 330.839 49.6507 323.515 55.4314C321.938 56.5582 321.278 56.9982 319.264 58.1184" stroke="white" stroke-width="4" stroke-linecap="round" stroke-linejoin="round"/>
<path d="M497.954 26.7811C505.048 29.6615 510.382 32.7685 513.942 34.8855C517.446 36.9689 519.943 38.996 521.843 40.9962C524.827 44.1373 515.969 47.8771 510.532 53.6512C509.295 54.998 508.635 55.8781 508.075 56.6615C507.515 57.445 507.075 58.1051 506.621 58.7851" stroke="white" stroke-width="4" stroke-linecap="round" stroke-linejoin="round"/>
<path d="M106.29 169.273C106.957 177.021 106.517 185.035 106.18 188.042C106.092 188.825 105.85 189.702 105.737 196.866C105.623 204.031 105.623 217.452 105.953 224.367C106.283 231.281 106.943 231.281 107.724 231.171C109.4 230.934 119.312 230.614 133.64 230.504C140.276 230.453 144.488 229.947 149.482 229.837C160.688 229.59 175.392 228.84 181.279 227.844C186.887 226.894 180.966 209.371 180.413 201.294C180.123 197.06 179.633 188.675 178.526 179.964C178.271 177.957 177.859 175.514 177.192 171.527C176.823 169.319 176.966 166.659 165.304 165.299C153.643 163.939 130.32 163.939 117.975 164.159C105.63 164.379 104.97 164.819 103.623 165.272" stroke="white" stroke-width="4" stroke-linecap="round" stroke-linejoin="round"/>
<path d="M130.293 185.275C130.293 185.715 130.293 191.002 130.953 198.23C131.357 202.655 138.947 197.503 144.161 197.166C146.949 196.986 149.395 196.61 151.392 196.72C152.981 196.807 154.289 198.157 155.51 199.82C156.548 201.236 157.183 202.604 157.516 205.034C158.146 209.623 156.97 213.492 155.53 215.045C152.74 218.055 148.095 219.053 144.201 219.833C140.561 219.946 137.634 219.506 136.194 218.509C135.414 217.952 134.534 217.292 133.627 215.945" stroke="white" stroke-width="4" stroke-linecap="round" stroke-linejoin="round"/>
<path d="M130.96 180.608C131.84 180.608 135.814 180.608 141.698 180.718C145.162 181.048 146.955 181.495 148.505 181.828C149.395 181.941 150.496 181.941 151.629 181.941" stroke="white" stroke-width="4" stroke-linecap="round" stroke-linejoin="round"/>
<path d="M73.9003 197.469C71.9067 196.582 68.8063 196.136 63.8157 195.582C53.083 194.392 49.4706 196.136 39.3793 198.569C34.5148 199.742 29.9215 204.11 26.6811 206.354C24.1588 208.1 21.9071 210.791 17.6866 216.892C15.1261 220.593 13.2394 224.779 11.7859 228.13C9.44174 233.533 5.67842 242.341 4.56161 246.792C3.57197 250.736 3.45148 254.343 3.11477 258.574C2.82911 262.163 2.11798 266.571 2.00129 275.556C1.94991 279.512 3.43814 283.453 4.77498 288.241C6.11637 293.044 8.54545 295.028 9.99896 297.472C11.6082 300.177 15.6397 303.683 19.8802 307.25C22.8624 309.758 25.881 311.03 30.6516 312.92C35.9033 315.001 38.5492 315.924 41.7729 317.258C45.2141 318.681 50.324 319.698 53.7745 321.258C54.5579 321.485 55.218 321.485 55.8881 321.595C56.5581 321.705 57.2182 321.925 59.2318 322.151" stroke="white" stroke-width="4" stroke-linecap="round" stroke-linejoin="round"/>
<path d="M53.2311 306.15C54.778 306.59 59.2052 309.243 62.1122 312.14C66.9979 317.009 73.2269 322.812 73.897 323.922C75.1296 325.964 66.8195 325.699 58.1517 329.029C53.9045 330.373 51.9043 330.819 50.5741 331.039C49.904 331.259 49.2439 331.699 47.8971 332.153" stroke="white" stroke-width="4" stroke-linecap="round" stroke-linejoin="round"/>
<path d="M110.572 304.149C110.572 308.336 111.012 318.564 111.348 328.892C111.447 331.929 111.905 344.261 112.015 361.926C112.054 368.151 112.345 368.811 112.459 369.591C112.572 370.371 112.572 371.251 119.063 371.704C125.553 372.158 138.535 372.158 145.553 372.048C155.465 371.892 160.338 371.051 163.455 370.714C167.908 370.233 172.779 369.717 176.673 368.937C183.121 367.646 190.962 368.157 200.63 367.387C203.995 367.119 203.917 365.077 203.807 363.623C203.376 357.938 202.81 352.182 202.363 345.074C201.567 332.402 200.81 319.951 200.473 314.614C200.205 310.362 199.476 305.056 198.696 301.939C198.478 301.069 198.583 299.949 198.033 299.272C197.483 298.595 196.382 298.375 189.435 298.262C182.487 298.148 169.726 298.148 162.601 298.038C149.932 297.843 140.602 297.922 133.158 298.259C126.583 298.556 119.479 299.255 113.705 299.592C112.358 299.702 111.478 299.922 110.695 300.145C109.912 300.369 109.251 300.589 108.571 300.815" stroke="white" stroke-width="4" stroke-linecap="round" stroke-linejoin="round"/>
<path d="M235.921 327.486C244.308 326.819 257.683 327.259 263.567 327.596C265.024 327.706 266.124 327.926 272.962 328.039C279.799 328.152 292.341 328.152 305.263 328.152" stroke="white" stroke-width="4" stroke-linecap="round" stroke-linejoin="round"/>
<path d="M295.261 314.817C298.135 315.257 308.743 318.351 315.694 321.145C318.633 322.326 321.918 322.592 324.148 323.702C325.136 324.193 323.492 326.145 322.385 327.366C319.936 330.065 316.611 330.593 313.94 332.589C311.311 334.556 306.183 337.247 302.052 340.587C301.269 341.261 300.609 341.701 299.829 342.257C299.049 342.814 298.168 343.474 295.928 344.821" stroke="white" stroke-width="4" stroke-linecap="round" stroke-linejoin="round"/>
<path d="M340.6 308.817C340.6 309.257 340.6 313.004 340.71 318.888C340.776 322.367 341.267 333.166 341.157 348.165C341.113 354.151 340.6 356.142 341.701 358.363C343.282 361.555 349.028 360.156 352.245 360.266C354.822 360.354 364.077 360.823 377.072 360.713C383.254 360.661 394.287 360.156 408.956 359.386C413.995 359.122 413.943 357.076 413.723 355.512C412.931 349.887 412.169 346.395 411.723 341.727C411.214 336.413 408.396 330.393 407.722 326.172C406.655 319.484 406.169 316.831 405.832 314.161C405.661 312.801 405.275 308.41 405.165 302.412C405.124 300.153 404.835 299.495 401.971 299.155C386.945 297.371 382.406 300.149 377.512 300.702C373.516 301.154 364.67 301.482 353.539 302.036C349.768 302.149 344.268 302.149 341.544 302.479C338.82 302.809 339.04 303.469 339.934 305.483" stroke="white" stroke-width="4" stroke-linecap="round" stroke-linejoin="round"/>
<path d="M363.937 312.817C365.257 312.15 371.898 313.47 383.786 314.261C387.042 314.477 388.82 314.817 390.153 315.147C392.427 315.71 388.18 322.338 385.503 328.022C383.566 332.134 382.832 335.473 380.615 338.807C378.165 342.367 376.832 344.814 375.945 346.145C375.498 346.815 375.058 347.475 373.938 348.822" stroke="white" stroke-width="4" stroke-linecap="round" stroke-linejoin="round"/>
<path d="M370.604 329.486C371.931 329.486 375.472 329.926 380.255 330.706C381.926 330.819 383.486 331.039 385.699 331.373C387.033 331.486 388.793 331.486 391.94 332.82" stroke="white" stroke-width="4" stroke-linecap="round" stroke-linejoin="round"/>
<path d="M165.793 323.335C165.793 320.991 165.274 315.751 163.311 312.332C161.4 309.004 157.155 309.441 153.355 309.693C145.738 310.197 142.993 316.506 140.495 319.909C136.54 325.297 137.737 330.4 137.859 337.989C137.97 344.858 140.869 348.228 143.622 351.647C146.045 354.655 148.469 357.418 151.879 358.606C156.112 360.08 161.041 359.526 164.865 358.484C166.56 358.022 166.58 352.744 166.191 346.848C165.845 341.609 162.127 339.865 160.951 338.555C159.856 337.335 155.337 337.497 149.834 337.886C145.605 340.636 144.031 342.996 143.115 344.566C142.718 345.357 142.458 346.136 142.19 346.938" stroke="white" stroke-width="4" stroke-linecap="round" stroke-linejoin="round"/>
<path d="M430.145 325.695C432.23 325.695 437.462 326.215 456.95 326.223C468.382 324.909 479.963 324.649 482.575 324.256C484.149 324.122 486.226 324.122 488.366 323.335" stroke="white" stroke-width="4" stroke-linecap="round" stroke-linejoin="round"/>
<path d="M477.351 312.32C479.436 312.84 484.149 314.413 491.745 317.682C498.821 320.727 505.14 322.021 505.934 323.064C509.654 327.943 493.401 331.691 488.248 334.476C484.44 336.443 482.08 337.757 480.38 338.41C479.46 338.803 478.421 339.322 476.564 340.644" stroke="white" stroke-width="4" stroke-linecap="round" stroke-linejoin="round"/>
<path d="M563.108 310.747C563.108 309.189 563.108 307.608 562.849 306.038C562.266 302.517 557.617 301.573 554.206 300.783C549.827 299.767 545.044 302.344 538.479 306.011C534.064 308.476 533.746 313.091 531.905 319.508C530.842 323.214 530.851 327.505 531.893 331.974C532.453 334.374 535.037 335.656 537.129 336.702C541.803 339.039 550.992 336.726 560.587 336.053C562.314 335.932 563.092 336.443 563.753 336.966C566.493 339.135 566.255 348.181 565.472 354.137C565.208 356.147 564.162 357.945 562.856 359.644C561.225 361.767 558.663 363.193 553.97 363.979C535.87 363.208 527.712 360.84 526.532 360.057C526.13 359.534 526.13 358.755 526.13 357.953" stroke="white" stroke-width="4" stroke-linecap="round" stroke-linejoin="round"/>
<path d="M606.38 302.879C606.38 303.918 606.38 314.319 606.51 330.306C606.64 336.427 606.899 338.504 607.033 343.079C607.167 347.654 607.167 354.664 606.38 361.1" stroke="white" stroke-width="4" stroke-linecap="round" stroke-linejoin="round"/>
<path d="M582.777 305.24C585.916 305.24 594.768 303.682 603.072 301.184C609.449 299.748 616.836 298.946 622.599 298.816C624.987 298.686 626.285 298.426 629.196 298.159" stroke="white" stroke-width="4" stroke-linecap="round" stroke-linejoin="round"/>
<path d="M648.865 309.173C646.245 316.766 644.68 320.959 644.015 325.416C643.464 329.112 642.839 332.761 642.701 343.748C642.641 348.548 644.916 351.643 648.067 355.317C650.677 358.361 659.817 357.953 665.375 357.04C669.139 356.422 671.933 353.248 674.687 351.403C678.02 349.17 679.282 344.074 680.855 340.656C683.084 335.812 683.483 320.802 682.44 313.516C681.62 307.785 675.631 306.561 671.961 305.114C664.53 302.183 656.749 304.705 653.598 306.022C652.028 306.546 650.706 307.592 649.66 309.162C649.133 309.952 648.614 310.731 648.079 311.534" stroke="white" stroke-width="4" stroke-linecap="round" stroke-linejoin="round"/>
<path d="M699.218 365.034C698.431 357.449 697.912 350.636 697.385 345.907C696.588 338.758 695.552 330.967 695.544 309.649C695.542 305.24 696.323 304.469 697.11 303.678C700.194 300.578 704.442 300.787 708.38 300.779C714.872 300.766 718.871 303.918 722.805 306.931C725.081 308.674 725.968 312.557 725.838 316.88C725.762 319.415 724.662 321.486 723.356 323.972C720.549 329.316 713.663 331.187 708.939 332.772C707.101 333.296 704.482 333.563 701.209 333.433C699.753 333.303 698.715 333.044 697.645 332.776" stroke="white" stroke-width="4" stroke-linecap="round" stroke-linejoin="round"/>
<path d="M172.923 136.838C173.947 138.155 175.266 140.057 176.877 142.875C179.557 147.563 180.923 151.149 181.142 151.624C181.507 152.173 181.804 152.763 181.987 153.349C182.097 153.644 182.242 153.934 182.612 154.674" stroke="white" stroke-width="2" stroke-linecap="round" stroke-linejoin="round"/>
<path d="M172.703 136.398C172.558 136.836 171.681 137.86 170.945 139.071C169.488 141.466 168.453 143.36 167.422 144.505C166.742 145.259 166.102 146.373 165.732 147.769C165.2 149.775 164.34 150.706 163.677 151.88C163.089 153.424 162.649 154.45 162.172 155.368C162.061 155.626 161.988 155.916 161.913 156.656" stroke="white" stroke-width="2" stroke-linecap="round" stroke-linejoin="round"/>
<path d="M173.253 138.382C173.253 140.056 173.354 143.439 173.661 144.897C174.005 146.53 173.968 147.582 174.045 149.754C174.083 150.821 174.327 153.652 174.2 156.219C173.925 161.746 174.529 162.569 174.812 163.388C175.085 164.18 175.349 164.769 175.732 165.434C176.242 166.321 176.677 166.917 177.112 167.532C177.687 168.343 178.721 169.167 179.413 169.833C180.416 170.799 181.79 171.981 182.965 173.104C184.303 174.382 185.214 175.2 186.187 176.579C188.391 179.704 188.9 180.419 189.412 181.237C189.765 181.799 190.078 182.313 190.282 182.772C190.525 183.316 191.553 185.974 193.036 189.629C193.953 191.89 194.374 193.256 194.757 194.277C195.448 196.122 195.602 197.091 196.189 198.42C196.369 198.933 196.522 199.344 196.726 199.727C196.829 199.907 196.931 200.059 197.035 200.369" stroke="white" stroke-width="2" stroke-linecap="round" stroke-linejoin="round"/>
<path d="M178.78 171.62C179.515 171.921 180.122 172.527 180.383 173.048C180.786 173.853 181.508 174.824 182.028 175.755C183.022 177.534 183.893 178.81 184.327 179.7C184.775 180.619 184.977 181.541 185.302 182.58C185.818 184.235 185.843 185.137 186.083 186.114C186.372 187.296 186.751 189.974 187.08 191.533C187.264 192.407 187.362 193.633 187.599 194.436C188.008 195.82 188.358 197.318 188.553 198.163C188.618 198.403 188.704 198.66 188.748 198.879C188.792 199.097 188.792 199.269 188.922 199.706" stroke="white" stroke-width="2" stroke-linecap="round" stroke-linejoin="round"/>
<path d="M371.85 169.936C371.85 173.134 371.631 176.896 370.967 179.39C370.152 182.449 370.522 185.198 370.191 187.031C369.983 188.189 369.858 189.412 370.077 190.352C370.51 192.211 374.819 191.521 378.53 191.797C381.992 191.853 385.124 191.963 387.769 192.129C389.427 192.185 391.729 192.185 394.432 191.853" stroke="white" stroke-width="4" stroke-linecap="round" stroke-linejoin="round"/>
<path d="M388.122 180.894C388.122 184.84 388.122 191.146 388.232 198.224C388.786 204.134 388.677 205.907 388.511 207.448C388.454 208.55 388.454 210.304 388.454 212.11" stroke="white" stroke-width="4" stroke-linecap="round" stroke-linejoin="round"/>
</svg>
